<svg id="SvgjsSvg1006" width="830.0124816894531" height="287.25" xmlns="http://www.w3.org/2000/svg" version="1.1" xmlns:xlink="http://www.w3.org/1999/xlink" xmlns:svgjs="http://svgjs.com/svgjs"><defs id="SvgjsDefs1007"><marker id="SvgjsMarker1024" markerWidth="16" markerHeight="12" refX="16" refY="6" viewBox="0 0 16 12" orient="auto" markerUnits="userSpaceOnUse"><path id="SvgjsPath1025" d="M0,2 L14,6 L0,11 L0,2" fill="#323232" stroke="#323232" stroke-width="2"></path></marker><marker id="SvgjsMarker1034" markerWidth="16" markerHeight="12" refX="16" refY="6" viewBox="0 0 16 12" orient="auto" markerUnits="userSpaceOnUse"><path id="SvgjsPath1035" d="M0,2 L14,6 L0,11 L0,2" fill="#323232" stroke="#323232" stroke-width="2"></path></marker><marker id="SvgjsMarker1038" markerWidth="16" markerHeight="12" refX="16" refY="6" viewBox="0 0 16 12" orient="auto" markerUnits="userSpaceOnUse"><path id="SvgjsPath1039" d="M0,2 L14,6 L0,11 L0,2" fill="#323232" stroke="#323232" stroke-width="2"></path></marker><marker id="SvgjsMarker1062" markerWidth="16" markerHeight="12" refX="16" refY="6" viewBox="0 0 16 12" orient="auto" markerUnits="userSpaceOnUse"><path id="SvgjsPath1063" d="M0,2 L14,6 L0,11 L0,2" fill="#323232" stroke="#323232" stroke-width="2"></path></marker><marker id="SvgjsMarker1074" markerWidth="16" markerHeight="12" refX="0" refY="6" viewBox="0 0 16 12" orient="auto" markerUnits="userSpaceOnUse"><path id="SvgjsPath1075" d="M15,1.5 L2,6 L15,10.5" fill="#323232" stroke="#323232" stroke-width="2"></path></marker></defs><g id="SvgjsG1008" transform="translate(49.012481689453125,179)"><path id="SvgjsPath1009" d="M 15 0L 88.33333333333333 0C 103.18181818181819 0 103.18181818181819 70 88.33333333333333 70L 15 70C -5 70 -5 0 15 0ZM 88.33333333333333 0C 73.75 0 73.75 70 88.33333333333333 70C 73.75 70 73.75 0 88.33333333333333 0" stroke="#323232" stroke-width="2" fill-opacity="1" fill="#ffffff"></path><g id="SvgjsG1010"><text id="SvgjsText1011" font-family="微软雅黑" text-anchor="middle" font-size="13px" width="46" fill="#323232" font-weight="400" align="middle" anchor="middle" family="微软雅黑" size="13px" weight="400" font-style="" y="25.05" transform="rotate(0)"><tspan id="SvgjsTspan1012" dy="16" x="40"><tspan id="SvgjsTspan1013" style="text-decoration:;">levelDB</tspan></tspan></text></g></g><g id="SvgjsG1014" transform="translate(49.012481689453125,25)"><path id="SvgjsPath1015" d="M 0 0L 100 0L 100 70L 0 70Z" stroke="#323232" stroke-width="2" fill-opacity="1" fill="#ffffff"></path><g id="SvgjsG1016"><text id="SvgjsText1017" font-family="微软雅黑" text-anchor="middle" font-size="13px" width="71" fill="#323232" font-weight="400" align="middle" anchor="middle" family="微软雅黑" size="13px" weight="400" font-style="" y="17.05" transform="rotate(0)"><tspan id="SvgjsTspan1018" dy="16" x="50"><tspan id="SvgjsTspan1019" style="text-decoration:;">以太坊full全</tspan></tspan><tspan id="SvgjsTspan1020" dy="16" x="50"><tspan id="SvgjsTspan1021" style="text-decoration:;">节点</tspan></tspan></text></g></g><g id="SvgjsG1022"><path id="SvgjsPath1023" d="M99.01248168945312 95L99.01248168945312 137L99.01248168945312 137L99.01248168945312 179" stroke="#323232" stroke-width="2" fill="none" marker-end="url(#SvgjsMarker1024)"></path></g><g id="SvgjsG1026" transform="translate(267.0124816894531,179)"><path id="SvgjsPath1027" d="M 0 0L 100 0L 100 70L 0 70Z" stroke="#323232" stroke-width="2" fill-opacity="1" fill="#ffffff"></path><g id="SvgjsG1028"><text id="SvgjsText1029" font-family="微软雅黑" text-anchor="middle" font-size="13px" width="70" fill="#323232" font-weight="400" align="middle" anchor="middle" family="微软雅黑" size="13px" weight="400" font-style="" y="25.05" transform="rotate(0)"><tspan id="SvgjsTspan1030" dy="16" x="50"><tspan id="SvgjsTspan1031" style="text-decoration:;">geth-query</tspan></tspan></text></g></g><g id="SvgjsG1032"><path id="SvgjsPath1033" d="M267.0124816894531 214L208.01248168945312 214L208.01248168945312 214L149.01248168945312 214" stroke="#323232" stroke-width="2" fill="none" marker-end="url(#SvgjsMarker1034)"></path></g><g id="SvgjsG1036"><path id="SvgjsPath1037" d="M367.0124816894531 214L415.5124816894531 214L415.5124816894531 214L464.0124816894531 214" stroke="#323232" stroke-width="2" fill="none" marker-end="url(#SvgjsMarker1038)"></path></g><g id="SvgjsG1040" transform="translate(464.0124816894531,166.25)"><path id="SvgjsPath1041" d="M 20.666666666666668 0L 124 0C 103.33333333333333 0 103.33333333333333 95.5 124 95.5L 20.666666666666668 95.5C -7.294117647058823 95.5 -7.294117647058823 0 17.714285714285715 0Z" stroke="#323232" stroke-width="2" fill-opacity="1" fill="#ffffff"></path><g id="SvgjsG1042"><text id="SvgjsText1043" font-family="微软雅黑" text-anchor="middle" font-size="13px" width="93" fill="#323232" font-weight="400" align="middle" anchor="middle" family="微软雅黑" size="13px" weight="400" font-style="" y="5.8" transform="rotate(0)"><tspan id="SvgjsTspan1044" dy="16" x="58.9"><tspan id="SvgjsTspan1045" style="text-decoration:;">blocks,transact</tspan></tspan><tspan id="SvgjsTspan1046" dy="16" x="58.9"><tspan id="SvgjsTspan1047" style="text-decoration:;">ions,transfers,t</tspan></tspan><tspan id="SvgjsTspan1048" dy="16" x="58.9"><tspan id="SvgjsTspan1049" style="text-decoration:;">races,precomp</tspan></tspan><tspan id="SvgjsTspan1050" dy="16" x="58.9"><tspan id="SvgjsTspan1051" style="text-decoration:;">ileds,events的</tspan></tspan><tspan id="SvgjsTspan1052" dy="16" x="58.9"><tspan id="SvgjsTspan1053" style="text-decoration:;">csv数据文件</tspan></tspan></text></g></g><g id="SvgjsG1054" transform="translate(675.0124816894531,179)"><path id="SvgjsPath1055" d="M 15 0L 88.33333333333333 0C 103.18181818181819 0 103.18181818181819 70 88.33333333333333 70L 15 70C -5 70 -5 0 15 0ZM 88.33333333333333 0C 73.75 0 73.75 70 88.33333333333333 70C 73.75 70 73.75 0 88.33333333333333 0" stroke="#323232" stroke-width="2" fill-opacity="1" fill="#ffffff"></path><g id="SvgjsG1056"><text id="SvgjsText1057" font-family="微软雅黑" text-anchor="middle" font-size="13px" width="54" fill="#323232" font-weight="400" align="middle" anchor="middle" family="微软雅黑" size="13px" weight="400" font-style="" y="25.05" transform="rotate(0)"><tspan id="SvgjsTspan1058" dy="16" x="40"><tspan id="SvgjsTspan1059" style="text-decoration:;">postgres</tspan></tspan></text></g></g><g id="SvgjsG1060"><path id="SvgjsPath1061" d="M576.0749816894531 214L625.5437316894531 214L625.5437316894531 214L675.0124816894531 214" stroke="#323232" stroke-width="2" fill="none" marker-end="url(#SvgjsMarker1062)"></path></g><g id="SvgjsG1064" transform="translate(675.0124816894531,25)"><path id="SvgjsPath1065" d="M 0 0L 100 0L 100 70L 0 70Z" stroke="#323232" stroke-width="2" fill-opacity="1" fill="#ffffff"></path><g id="SvgjsG1066"><text id="SvgjsText1067" font-family="微软雅黑" text-anchor="middle" font-size="13px" width="74" fill="#323232" font-weight="400" align="middle" anchor="middle" family="微软雅黑" size="13px" weight="400" font-style="" y="17.05" transform="rotate(0)"><tspan id="SvgjsTspan1068" dy="16" x="50"><tspan id="SvgjsTspan1069" style="text-decoration:;">grafana页面</tspan></tspan><tspan id="SvgjsTspan1070" dy="16" x="50"><tspan id="SvgjsTspan1071" style="text-decoration:;">数据展示</tspan></tspan></text></g></g><g id="SvgjsG1072"><path id="SvgjsPath1073" d="M725.0124816894531 179L725.0124816894531 137L725.0124816894531 137L725.0124816894531 95" stroke="#323232" stroke-width="2" fill="none" marker-start="url(#SvgjsMarker1074)"></path></g><g id="SvgjsG1076" transform="translate(25.012481689453125,114)"><path id="SvgjsPath1077" d="M 0 0L 160 0L 160 40L 0 40Z" stroke="none" fill="none"></path><g id="SvgjsG1078"><text id="SvgjsText1079" font-family="微软雅黑" text-anchor="middle" font-size="13px" width="156" fill="#323232" font-weight="400" align="middle" anchor="middle" family="微软雅黑" size="13px" weight="400" font-style="" y="2.05" transform="rotate(0)"><tspan id="SvgjsTspan1080" dy="16" x="80"><tspan id="SvgjsTspan1081" style="text-decoration:;">存储同步区块数据以及区块</tspan></tspan><tspan id="SvgjsTspan1082" dy="16" x="80"><tspan id="SvgjsTspan1083" style="text-decoration:;">世界状态数据</tspan></tspan></text></g></g><g id="SvgjsG1084" transform="translate(130.01248168945312,179)"><path id="SvgjsPath1085" d="M 0 0L 160 0L 160 40L 0 40Z" stroke="none" fill="none"></path><g id="SvgjsG1086"><text id="SvgjsText1087" font-family="微软雅黑" text-anchor="middle" font-size="13px" width="52" fill="#323232" font-weight="400" align="middle" anchor="middle" family="微软雅黑" size="13px" weight="400" font-style="" y="10.05" transform="rotate(0)"><tspan id="SvgjsTspan1088" dy="16" x="80"><tspan id="SvgjsTspan1089" style="text-decoration:;">读取数据</tspan></tspan></text></g></g><g id="SvgjsG1090" transform="translate(367.0124816894531,168)"><path id="SvgjsPath1091" d="M 0 0L 87 0L 87 62L 0 62Z" stroke="none" fill="none"></path><g id="SvgjsG1092"><text id="SvgjsText1093" font-family="微软雅黑" text-anchor="middle" font-size="13px" width="78" fill="#323232" font-weight="400" align="middle" anchor="middle" family="微软雅黑" size="13px" weight="400" font-style="" y="13.05" transform="rotate(0)"><tspan id="SvgjsTspan1094" dy="16" x="43.5"><tspan id="SvgjsTspan1095" style="text-decoration:;">导出合约执行</tspan></tspan><tspan id="SvgjsTspan1096" dy="16" x="43.5"><tspan id="SvgjsTspan1097" style="text-decoration:;">中间状态数据</tspan></tspan></text></g></g><g id="SvgjsG1098" transform="translate(585.0124816894531,158.5)"><path id="SvgjsPath1099" d="M 0 0L 65 0L 65 81L 0 81Z" stroke="none" fill="none"></path><g id="SvgjsG1100"><text id="SvgjsText1101" font-family="微软雅黑" text-anchor="middle" font-size="13px" width="66" fill="#323232" font-weight="400" align="middle" anchor="middle" family="微软雅黑" size="13px" weight="400" font-style="" y="22.55" transform="rotate(0)"><tspan id="SvgjsTspan1102" dy="16" x="32.5"><tspan id="SvgjsTspan1103" style="text-decoration:;">csv数据导</tspan></tspan><tspan id="SvgjsTspan1104" dy="16" x="32.5"><tspan id="SvgjsTspan1105" style="text-decoration:;">入存储优化</tspan></tspan></text></g></g><g id="SvgjsG1106" transform="translate(645.0124816894531,118.5)"><path id="SvgjsPath1107" d="M 0 0L 160 0L 160 40L 0 40Z" stroke="none" fill="none"></path><g id="SvgjsG1108"><text id="SvgjsText1109" font-family="微软雅黑" text-anchor="middle" font-size="13px" width="122" fill="#323232" font-weight="400" align="middle" anchor="middle" family="微软雅黑" size="13px" weight="400" font-style="" y="10.05" transform="rotate(0)"><tspan id="SvgjsTspan1110" dy="16" x="80"><tspan id="SvgjsTspan1111" style="text-decoration:;">sql查询获取展示数据</tspan></tspan></text></g></g></svg>